<?xml version="1.0" encoding="UTF-8" standalone="no"?>
<!-- Created with sK1/UniConvertor (http://sk1project.org/) -->

<svg
   width="1979"
   height="500"
   viewBox="0 0 1484.2499 375.00002"
   version="1.1"
   id="svg26"
   sodipodi:docname="devfest_color_text.svg"
   inkscape:version="1.1.2 (b8e25be833, 2022-02-05)"
   style="fill-rule:evenodd"
   inkscape:export-filename="C:\hugo\tochka.pro\static\images\logos\devfest_color_text.png"
   inkscape:export-xdpi="96"
   inkscape:export-ydpi="96"
   xmlns:inkscape="http://www.inkscape.org/namespaces/inkscape"
   xmlns:sodipodi="http://sodipodi.sourceforge.net/DTD/sodipodi-0.dtd"
   xmlns="http://www.w3.org/2000/svg"
   xmlns:svg="http://www.w3.org/2000/svg"
   xmlns:rdf="http://www.w3.org/1999/02/22-rdf-syntax-ns#"
   xmlns:cc="http://creativecommons.org/ns#"
   xmlns:dc="http://purl.org/dc/elements/1.1/">
  <metadata
     id="metadata32">
    <rdf:RDF>
      <cc:Work
         rdf:about="">
        <dc:format>image/svg+xml</dc:format>
        <dc:type
           rdf:resource="http://purl.org/dc/dcmitype/StillImage" />
      </cc:Work>
    </rdf:RDF>
  </metadata>
  <defs
     id="defs30">
    <rect
       x="1358.1017"
       y="-598.77966"
       width="3536.2712"
       height="754.98309"
       id="rect24176" />
    <rect
       x="969.52728"
       y="316.01682"
       width="3196.9856"
       height="674.98737"
       id="rect2198" />
    <rect
       x="1176.6257"
       y="388.11774"
       width="397.32211"
       height="286.86963"
       id="rect7780" />
  </defs>
  <sodipodi:namedview
     pagecolor="#ffffff"
     bordercolor="#666666"
     borderopacity="1"
     objecttolerance="10"
     gridtolerance="10"
     guidetolerance="10"
     inkscape:pageopacity="0"
     inkscape:pageshadow="2"
     inkscape:window-width="1920"
     inkscape:window-height="1017"
     id="namedview28"
     showgrid="false"
     showguides="true"
     inkscape:zoom="0.23046875"
     inkscape:cx="1609.7627"
     inkscape:cy="906.84748"
     inkscape:window-x="-8"
     inkscape:window-y="-8"
     inkscape:window-maximized="1"
     inkscape:current-layer="svg26"
     units="px"
     inkscape:pagecheckerboard="0"
     width="300px"
     inkscape:document-units="mm"
     inkscape:guide-bbox="true">
    <sodipodi:guide
       position="427.71569,349.33065"
       orientation="1,0"
       id="guide10783" />
    <sodipodi:guide
       position="440.94698,359.68557"
       orientation="0,-1"
       id="guide10785" />
    <sodipodi:guide
       position="-414.19679,416.41968"
       orientation="1,0"
       id="guide98364" />
    <sodipodi:guide
       position="351.45763,485.64407"
       orientation="1,0"
       id="guide98402" />
    <sodipodi:guide
       position="176.54236,1.5762632"
       orientation="0,-1"
       id="guide98508" />
  </sodipodi:namedview>
  <flowRoot
     xml:space="preserve"
     id="flowRoot908"
     style="font-style:normal;font-variant:normal;font-weight:normal;font-stretch:normal;font-size:21.3333px;line-height:1.5;font-family:Roboto;-inkscape-font-specification:Roboto;letter-spacing:0px;word-spacing:0px;fill:#000000;fill-opacity:1;stroke:none"
     transform="scale(0.74999998)"><flowRegion
       id="flowRegion910"
       style="font-size:21.3333px"><rect
         id="rect912"
         width="250.81917"
         height="232.41042"
         x="-269.99493"
         y="41.231297"
         style="font-size:21.33333339px;" /></flowRegion><flowPara
       id="flowPara914" /><flowPara
       id="flowPara916" /><flowPara
       id="flowPara918" /><flowPara
       id="flowPara920" /></flowRoot>
  <flowRoot
     xml:space="preserve"
     id="flowRoot922"
     style="font-style:normal;font-variant:normal;font-weight:normal;font-stretch:normal;font-size:17.3333px;line-height:1.5;font-family:Roboto;-inkscape-font-specification:Roboto;letter-spacing:0px;word-spacing:0px;fill:#000000;fill-opacity:1;stroke:none"><flowRegion
       id="flowRegion924"
       style="font-size:17.3333px"><rect
         id="rect926"
         width="214.00168"
         height="140.36668"
         x="-264.62573"
         y="105.66191"
         style="font-size:17.33333333px;" /></flowRegion><flowPara
       id="flowPara928" /></flowRoot>
  <text
     xml:space="preserve"
     transform="scale(0.75)"
     id="text7778"
     style="font-style:normal;font-variant:normal;font-weight:normal;font-stretch:normal;font-size:40px;line-height:1.25;font-family:'Mongolian Baiti';-inkscape-font-specification:'Mongolian Baiti';white-space:pre;shape-inside:url(#rect7780);fill:#000000;fill-opacity:1;stroke:none" />
  <text
     xml:space="preserve"
     transform="scale(0.75)"
     id="text24174"
     style="font-style:normal;font-variant:normal;font-weight:normal;font-stretch:normal;font-size:40px;line-height:1.25;font-family:'Open Sans';-inkscape-font-specification:'Open Sans';white-space:pre;shape-inside:url(#rect24176);fill:#000000;fill-opacity:1;stroke:none" />
  <path
     id="path20-6"
     style="fill:#32de87;fill-opacity:0.947099;stroke:none;stroke-width:0.411724;stroke-miterlimit:4;stroke-dasharray:none;stroke-opacity:1"
     d="m 75.583885,306.29061 c -13.660926,5.93954 -19.897439,16.92767 -17.521617,31.18253 1.48488,9.50325 0.890931,11.87906 -2.672791,11.87906 -2.375823,0 -4.454653,-2.67278 -4.454653,-5.93952 0,-7.12744 -10.394185,-8.31535 -13.066976,-1.18791 -2.969761,7.4244 -2.07883,15.44278 2.078842,18.11557 4.751621,3.26674 227.484,3.56371 236.0963,0.59396 10.69113,-4.15767 7.12742,-23.46116 -4.45465,-23.46116 -2.07882,0 -4.45464,3.26674 -5.64253,7.12744 -3.26677,13.06697 -9.50328,5.93952 -7.72142,-8.61232 1.18792,-11.58208 0.29701,-14.25488 -7.42439,-21.97626 -11.87906,-11.87904 -21.67927,-13.95788 -34.74624,-7.72139 -7.12745,3.56371 -11.5821,8.31535 -14.25489,15.1458 -2.3758,6.5335 -5.64254,10.09721 -8.90929,10.09721 -2.96977,0 -5.34557,-1.48488 -5.34557,-2.96978 0,-4.45465 -9.80024,-3.56372 -17.22467,1.78187 -3.56371,2.37581 -6.53345,7.72139 -6.53345,11.87906 0,10.69114 -8.01837,8.90929 -11.87907,-2.96977 -1.78186,-5.64255 -5.34557,-10.98812 -7.72139,-11.87907 -7.42441,-2.96975 -15.44277,-2.07883 -16.63069,1.78188 -2.07883,5.93952 -10.39416,0.29696 -12.17602,-8.61233 -1.18791,-5.93952 -4.75162,-10.0972 -12.47301,-13.66091 -12.473011,-5.93955 -14.848821,-5.93955 -27.321825,-0.59396 z m 52.564805,-89.38993 c 0,8.31532 12.47302,13.66091 31.18256,13.66091 18.70952,-0.29697 30.2916,-5.34559 27.32182,-12.77 -2.3758,-6.53347 -58.50438,-7.12742 -58.50438,-0.89091 z m 0,-19.00649 c 0,5.64255 2.07885,5.93952 29.69764,5.93952 27.61884,0 29.69768,-0.29697 29.69768,-5.93952 0,-5.64257 -2.07884,-5.93955 -29.69768,-5.93955 -27.61879,0 -29.69764,0.29698 -29.69764,5.93955 z m 71.27438,-26.43092 v 37.41903 l 11.58208,9.20628 c 6.53348,5.34557 13.06696,9.50323 14.84883,9.50323 1.48488,0 3.26675,-11.58207 3.8607,-25.53998 l 0.89091,-25.83695 -13.06696,-18.11556 c -7.12742,-10.09719 -14.25488,-19.30346 -15.44278,-21.08532 -1.48488,-1.48489 -2.67278,13.36394 -2.67278,34.44927 z m -98.59619,-15.44278 c -14.254872,20.49138 -14.254872,20.78836 -14.254872,45.73439 0,13.6609 0.890931,25.83693 1.781861,26.72786 2.07883,2.07885 13.066961,-5.04859 24.352071,-15.73974 5.93952,-5.64255 6.53347,-8.61232 6.53347,-41.57671 0,-19.60044 -0.89091,-35.63718 -2.07883,-35.63718 -1.48488,0 -8.61232,9.20627 -16.3337,20.49138 z m 74.83806,-27.91579 c 0,52.86182 0.297,54.94065 5.93955,54.94065 5.64255,0 5.93952,-2.07883 5.93952,-54.94065 0,-52.861835 -0.29697,-54.940642 -5.93952,-54.940642 -5.64255,0 -5.93955,2.078807 -5.93955,54.940642 z M 153.98568,75.242865 c -1.18791,0.890931 -2.07886,25.836945 -2.07886,54.940675 v 53.15879 l 6.83044,-0.89093 c 6.53351,-0.89093 6.53351,-1.48488 7.42444,-52.56484 0.59393,-39.497899 -0.29701,-52.267861 -2.96978,-54.346726 -4.7516,-2.96976 -6.83044,-2.96976 -9.20624,-0.296969 z m -23.75814,0 c -1.18791,0.890931 -2.07885,25.836945 -2.07885,54.940675 0,49.89205 0.29699,52.86181 5.64253,52.86181 6.53351,0 8.01837,-3.86069 7.42444,-16.33371 -0.297,-5.0486 -0.59395,-27.91578 -0.89093,-51.37693 -0.29699,-32.964413 -1.18792,-42.170652 -4.15766,-42.170652 -2.37585,0 -5.04864,0.890931 -5.93953,2.078807 z m 15.44277,-34.746253 c -9.2063,15.739756 -11.58208,21.976257 -8.90929,23.758118 2.96977,1.781861 32.9644,2.07883 42.76463,0.296981 4.15767,-0.593961 1.78185,-8.018374 -9.50326,-26.43091 L 158.44032,19.114304 Z m 53.75276,52.56484 v 23.164188 l 19.30346,27.91579 19.30349,27.91579 v 32.37042 32.07347 h -9.80022 c -6.23652,0 -13.36395,-2.96975 -20.78836,-9.20627 -7.12744,-5.93952 -10.98814,-7.72139 -10.98814,-4.75162 0,8.61233 -11.2851,14.55185 -30.88556,16.03673 -23.75815,2.07883 -32.96439,-0.29697 -41.87367,-9.80024 l -7.12744,-7.72138 -10.0972,7.72138 c -5.93952,4.45465 -13.957889,7.7214 -19.30346,7.7214 H 77.662715 V 204.42764 172.65117 L 98.451073,143.84445 119.23941,115.03771 V 90.982611 c 0,-22.86719 0.59397,-25.243 12.47301,-45.437397 6.83046,-11.879065 15.73976,-26.43091 19.60046,-32.667424 L 158.73726,1.8896672 178.93168,35.74499 199.42307,69.600313 Z M 163.78589,279.56273 c 0,2.3758 -2.07883,4.45464 -4.45464,4.45464 -2.37586,0 -4.45465,-2.07884 -4.45465,-4.45464 0,-2.37581 2.07879,-4.45466 4.45465,-4.45466 2.37581,0 4.45464,2.07885 4.45464,4.45466 z M 105.5785,297.6783 c 5.64255,2.67278 11.87907,8.01837 13.9579,11.87905 2.67279,5.04861 6.23648,7.12745 12.17602,7.12745 8.90929,0 20.1944,4.75161 23.75813,9.8002 0.89093,1.78188 5.04856,0.29699 9.80022,-3.56371 4.45465,-3.26674 12.17603,-6.23649 16.92766,-6.23649 5.93954,0 10.98813,-2.6728 16.03674,-8.61233 19.30346,-22.86719 57.01948,-17.22464 66.81971,10.0972 2.37581,6.23651 6.23651,10.69117 10.69115,11.87907 9.80024,2.37581 16.92768,14.55184 14.55181,25.53998 -1.78184,8.90929 -1.78184,8.90929 10.69116,8.01836 10.09727,-0.59396 12.77003,0.29697 13.66093,4.15768 0.89098,5.04858 -8.01835,5.34557 -156.20961,5.34557 -137.500128,0 -157.1005752,-0.59396 -157.1005752,-4.45464 0,-4.15768 10.0971932,-6.23652 21.9762582,-4.75164 2.672791,0.29699 3.266741,-2.07884 2.07883,-8.01837 -2.375811,-11.87906 2.969772,-20.49136 15.145806,-25.83694 5.642552,-2.07883 10.394185,-6.23652 10.394185,-8.61233 0,-6.53348 16.927668,-24.94603 24.649061,-26.43091 13.363934,-2.67278 19.897416,-2.07884 29.994615,2.6728 z m 58.20739,5.64256 c 0,2.37581 -2.07883,4.45464 -4.45464,4.45464 -2.37586,0 -4.45465,-2.07883 -4.45465,-4.45464 0,-2.37584 2.07879,-4.45466 4.45465,-4.45466 2.37581,0 4.45464,2.07882 4.45464,4.45466 z m 0.0724,-47.23532 c 0,2.3758 -2.07883,4.45464 -4.45464,4.45464 -2.37586,0 -4.45466,-2.07884 -4.45466,-4.45464 0,-2.37581 2.0788,-4.45465 4.45466,-4.45465 2.37581,0 4.45464,2.07884 4.45464,4.45465 z"
     inkscape:connector-curvature="0"
     sodipodi:nodetypes="ccsscccsccsccsscscccsccsccsssssssccsccccscsscsscssssscsccccccssccscccccccccccccscsccccscccccsccccccsssssccsccsccccccsscscsccssssssssss" />
  <path
     id="text2196"
     style="font-style:normal;font-variant:normal;font-weight:normal;font-stretch:normal;font-size:192px;line-height:1.25;font-family:Montserrat;-inkscape-font-specification:Montserrat;white-space:pre;shape-inside:url(#rect2198);fill:#ffffff;fill-opacity:1;stroke:none;stroke-width:1.03519"
     d="m 459.23171,116.74256 c -10.60045,0 -20.34022,1.7884 -29.21809,5.36604 -8.87787,3.44515 -16.62832,8.4145 -23.25358,14.90728 -6.49277,6.36028 -11.59537,13.84611 -15.30552,22.45897 -3.57766,8.48036 -5.36606,17.82227 -5.36606,28.02519 0,10.20293 1.7884,19.61045 5.36606,28.22327 3.71015,8.48033 8.81275,15.96819 15.30552,22.46095 6.62526,6.36027 14.37571,11.32762 23.25358,14.90526 9.01038,3.44514 18.75015,5.16792 29.21809,5.16792 10.46793,0 20.14011,-1.72278 29.01797,-5.16792 8.87787,-3.57764 16.56256,-8.54499 23.05534,-14.90526 6.62539,-6.36026 11.72798,-13.84812 15.30561,-22.46095 3.71017,-8.61282 5.5642,-18.02034 5.5642,-28.22327 0,-10.20292 -1.85403,-19.61047 -5.5642,-28.22332 -3.57763,-8.61286 -8.68022,-16.09872 -15.30561,-22.45899 -6.49278,-6.36026 -14.17747,-11.26398 -23.05534,-14.70913 -8.87786,-3.57764 -18.55004,-5.36604 -29.01797,-5.36604 z m 924.74209,0 c -10.6003,0 -20.3401,1.7884 -29.2179,5.36604 -8.878,3.44515 -16.6284,8.4145 -23.2537,14.90728 -6.4928,6.36028 -11.5953,13.84611 -15.3055,22.45897 -3.5778,8.48036 -5.366,17.82227 -5.366,28.02519 0,10.20293 1.7882,19.61045 5.366,28.22327 3.7102,8.48033 8.8127,15.96819 15.3055,22.46095 6.6253,6.36027 14.3757,11.32762 23.2537,14.90526 9.0103,3.44514 18.75,5.16792 29.2179,5.16792 10.4681,0 20.1403,-1.72278 29.018,-5.16792 8.8779,-3.57764 16.5646,-8.54499 23.0575,-14.90526 6.6252,-6.36026 11.7259,-13.84812 15.3034,-22.46095 3.7102,-8.61282 5.5664,-18.02034 5.5664,-28.22327 0,-10.20292 -1.8562,-19.61047 -5.5664,-28.22332 -3.5775,-8.61286 -8.6782,-16.09872 -15.3034,-22.45899 -6.4929,-6.36026 -14.1796,-11.26398 -23.0575,-14.70913 -8.8777,-3.57764 -18.5499,-5.36604 -29.018,-5.36604 z m -1121.91115,1.1929 v 12.71961 h 48.89498 v 126.41148 h 14.50894 V 130.65507 h 48.89494 v -12.71961 z m 290.58575,0 v 45.91271 c 0,14.44311 4.50373,25.63905 13.5141,33.58939 9.14288,7.8178 21.86476,11.72682 38.16294,11.72682 7.2878,0 14.83927,-0.92701 22.6571,-2.78208 7.08924,-1.65417 14.1788,-3.99811 21.26806,-7.02195 v 57.7062 h 14.3108 V 117.93546 h -14.3108 v 68.36966 c -6.70561,3.00945 -13.4637,5.39632 -20.27334,7.15743 -7.68532,1.85508 -15.10553,2.78412 -22.26083,2.78412 -12.05801,0 -21.53319,-2.98202 -28.42346,-8.94477 -6.7578,-5.96274 -10.13564,-14.30998 -10.13564,-25.04293 v -44.32351 z m 157.0186,0 v 139.13109 h 14.31091 v -63.80214 h 31.71914 l 49.17594,63.80214 h 16.8928 l -54.57649,-71.46909 51.59623,-67.662 h -15.89998 l -47.07931,62.40917 h -31.82833 v -62.40917 z m 176.24471,0 -63.6021,139.13109 h 15.30562 l 16.63194,-37.16809 h 77.64197 l 16.6321,37.16809 h 15.50346 l -63.602,-139.13109 z m 152.81909,0 v 139.13109 h 14.7092 v -43.9272 h 37.3663 c 11.7929,0 21.9286,-1.91966 30.4091,-5.7623 8.4802,-3.84264 14.9735,-9.2755 19.4786,-16.2983 4.6377,-7.15529 6.9573,-15.63583 6.9573,-25.44124 0,-10.07041 -2.3196,-18.61657 -6.9573,-25.63937 -4.5051,-7.15529 -10.9984,-12.58817 -19.4786,-16.29833 -8.4805,-3.84266 -18.6162,-5.76435 -30.4091,-5.76435 z m 140.7206,0 v 139.13109 h 14.709 v -44.12533 h 37.3663 c 3.9265,0 7.652,-0.22558 11.2112,-0.63689 l 31.7213,44.76222 h 16.0982 l -33.9696,-47.67169 c 1.8495,-0.59835 3.6337,-1.26785 5.3479,-2.01781 8.4804,-3.84264 14.9736,-9.2755 19.4788,-16.2983 4.6377,-7.15529 6.9571,-15.63583 6.9571,-25.44124 0,-10.07041 -2.3194,-18.61657 -6.9571,-25.63937 -4.5052,-7.15529 -10.9984,-12.58817 -19.4788,-16.29833 -8.4803,-3.84266 -18.616,-5.76435 -30.409,-5.76435 z m -720.21969,11.92501 c 8.34784,0 16.03263,1.4582 23.05544,4.37332 7.15528,2.78262 13.31628,6.82292 18.484,12.12315 5.30021,5.1677 9.40818,11.26303 12.32331,18.28582 2.91512,6.89031 4.37331,14.50943 4.37331,22.85728 0,8.34785 -1.45819,16.03263 -4.37331,23.05538 -2.91513,6.89026 -7.0231,12.98556 -12.32331,18.28578 -5.16772,5.1677 -11.32872,9.21004 -18.484,12.12517 -7.02281,2.78261 -14.7076,4.17315 -23.05544,4.17315 -8.34786,0 -16.10025,-1.39054 -23.25556,-4.17315 -7.15529,-2.91513 -13.38192,-6.95747 -18.68214,-12.12517 -5.16771,-5.30022 -9.27569,-11.46117 -12.32331,-18.48392 -2.91512,-7.02276 -4.37331,-14.6419 -4.37331,-22.85724 0,-8.34785 1.45819,-15.96697 4.37331,-22.85728 3.04762,-7.02279 7.1556,-13.11812 12.32331,-18.28582 5.30022,-5.30023 11.52685,-9.34053 18.68214,-12.12315 7.15531,-2.91512 14.9077,-4.37332 23.25556,-4.37332 z m 924.74209,0 c 8.3478,0 16.0326,1.4582 23.0554,4.37332 7.1553,2.78262 13.3184,6.82292 18.4861,12.12315 5.3003,5.1677 9.4063,11.26303 12.3213,18.28582 2.9151,6.89031 4.3733,14.50943 4.3733,22.85728 0,8.34785 -1.4582,16.03263 -4.3733,23.05538 -2.915,6.89026 -7.021,12.98556 -12.3213,18.28578 -5.1677,5.1677 -11.3308,9.21004 -18.4861,12.12517 -7.0228,2.78261 -14.7076,4.17315 -23.0554,4.17315 -8.3478,0 -16.1003,-1.39054 -23.2554,-4.17315 -7.1554,-2.91513 -13.382,-6.95747 -18.6822,-12.12517 -5.1678,-5.30022 -9.2757,-11.46117 -12.3233,-18.48392 -2.9152,-7.02276 -4.3732,-14.6419 -4.3732,-22.85724 0,-8.34785 1.458,-15.96697 4.3732,-22.85728 3.0476,-7.02279 7.1555,-13.11812 12.3233,-18.28582 5.3002,-5.30023 11.5268,-9.34053 18.6822,-12.12315 7.1551,-2.91512 14.9076,-4.37332 23.2554,-4.37332 z m -330.5338,0.7946 h 36.968 c 13.9131,0 24.4466,3.04765 31.6019,9.14291 7.2877,6.09527 10.9322,14.70908 10.9321,25.83953 0,10.99797 -3.6444,19.54414 -10.9321,25.63939 -7.1553,5.96276 -17.6888,8.94478 -31.6019,8.94478 h -36.968 z m 140.7204,0 h 36.9679 c 13.9131,0 24.4486,3.04765 31.604,9.14291 7.2877,6.09527 10.9301,14.70908 10.9301,25.83953 0,10.99797 -3.6424,19.54414 -10.9301,25.63939 -7.1554,6.09526 -17.6909,9.14291 -31.604,9.14291 h -36.9679 z m -301.09326,2.48892 33.48428,74.82749 h -66.9665 z M 995.0038,236.3949 c -2.9152,0 -5.4315,0.9947 -7.5516,2.98227 -1.9876,1.98759 -2.9823,4.56971 -2.9823,7.74986 0,3.04762 0.9947,5.63175 2.9823,7.75186 2.1201,2.12009 4.6364,3.18041 7.5516,3.18041 2.9151,0 5.3661,-1.06032 7.3536,-3.18041 2.1201,-2.12011 3.1804,-4.70424 3.1804,-7.75186 0,-3.18015 -1.0603,-5.76227 -3.1804,-7.74986 -1.9875,-1.98757 -4.4385,-2.98227 -7.3536,-2.98227 z" />
</svg>
