<?xml version="1.0" standalone="no"?>
<!DOCTYPE svg PUBLIC "-//W3C//DTD SVG 20010904//EN"
 "http://www.w3.org/TR/2001/REC-SVG-20010904/DTD/svg10.dtd">
<svg version="1.0" xmlns="http://www.w3.org/2000/svg"
 width="700.000000pt" height="700.000000pt" viewBox="0 0 700.000000 700.000000"
 preserveAspectRatio="xMidYMid meet">
<metadata>
Created by potrace 1.14, written by Peter Selinger 2001-2017
</metadata>
<g transform="translate(0.000000,700.000000) scale(0.100000,-0.100000)"
fill="#000000" stroke="none">
<path d="M3459 6884 c-77 -113 -101 -150 -206 -324 -51 -85 -98 -162 -103
-170 -147 -239 -295 -511 -324 -598 -44 -128 -48 -179 -50 -589 l-2 -352 -387
-537 -387 -537 2 -596 3 -596 115 2 c93 1 130 6 195 27 74 24 214 100 260 143
11 10 49 40 85 66 l64 47 111 -112 c179 -183 278 -222 560 -222 104 0 324 13
335 19 3 2 25 6 50 9 231 32 399 122 429 233 6 21 11 46 11 56 0 26 39 21 85
-10 22 -14 76 -54 120 -89 97 -75 190 -127 269 -149 69 -20 295 -28 297 -11 0
6 1 278 2 604 0 578 0 593 -20 620 -11 15 -49 70 -85 122 -35 52 -188 273
-339 490 l-274 395 -1 436 -1 437 -373 623 c-206 343 -377 628 -381 633 -4 4
-31 -27 -60 -70z m71 -280 c0 -8 5 -14 10 -14 6 0 10 -5 10 -11 0 -6 15 -34
34 -62 205 -317 359 -614 350 -674 -1 -7 -2 -17 -3 -23 -4 -31 -119 -43 -426
-44 -302 -1 -412 12 -416 47 -9 74 61 224 248 534 21 35 67 112 103 172 49 84
68 107 77 99 7 -6 13 -17 13 -24z m-401 -1016 c21 -68 30 -186 36 -466 5 -253
18 -1095 19 -1277 1 -174 -10 -216 -65 -243 -41 -20 -101 -21 -123 -2 -42 34
-50 176 -51 880 0 626 11 1012 30 1097 6 24 33 43 80 53 40 9 61 -3 74 -42z
m862 36 c23 -14 36 -61 46 -169 11 -108 10 -1598 0 -1705 -13 -133 -37 -170
-108 -166 -54 3 -73 40 -86 177 -10 97 -10 1614 0 1704 11 106 24 143 54 158
25 13 74 14 94 1z m-430 -15 c63 -32 74 -68 86 -299 15 -308 1 -1318 -22
-1545 -16 -146 -33 -164 -185 -180 l-55 -6 1 693 c2 809 9 1119 30 1276 10 78
66 102 145 61z m-815 -1162 c1 -7 5 -28 8 -47 16 -93 26 -703 16 -1010 -4
-126 -21 -224 -49 -277 -18 -36 -137 -154 -216 -214 -17 -13 -32 -26 -35 -29
-34 -39 -212 -140 -246 -140 -29 0 -32 5 -38 71 -14 138 -17 212 -17 469 -1
425 8 453 273 830 25 36 56 81 69 100 46 68 148 197 184 234 35 36 47 39 51
13z m1694 -162 c61 -82 119 -161 128 -175 9 -14 78 -110 152 -213 99 -137 134
-194 133 -215 0 -15 -4 -121 -8 -237 -9 -284 -18 -431 -31 -515 -15 -96 -28
-151 -38 -166 -11 -15 -16 -14 -57 6 -42 22 -121 72 -146 95 -7 5 -77 61 -157
124 l-144 114 3 546 c4 521 6 598 20 701 9 66 16 91 25 88 5 -2 58 -70 120
-153z m-500 -879 c14 -3 37 -8 52 -12 37 -8 58 -40 58 -87 0 -102 -41 -111
-535 -111 -316 0 -475 7 -517 23 -15 6 -33 20 -41 33 -13 21 -14 35 -9 100 3
28 56 48 149 56 98 8 804 7 843 -2z m-180 -389 c14 -3 48 -8 76 -11 78 -9 182
-44 194 -66 22 -42 6 -101 -40 -138 -77 -63 -273 -106 -485 -104 -300 2 -518
85 -554 211 -19 63 9 81 157 106 76 13 595 14 652 2z"/>
<path d="M3472 2280 c-12 -12 -23 -27 -23 -35 -1 -8 -2 -21 -3 -27 -6 -36 35
-77 76 -78 40 0 57 9 73 41 21 40 19 62 -10 93 -30 33 -81 35 -113 6z"/>
<path d="M3494 1855 c-33 -14 -56 -50 -50 -80 3 -11 5 -23 5 -27 2 -18 47 -48
72 -48 34 0 78 36 84 69 11 60 -54 110 -111 86z"/>
<path d="M2208 1525 c-2 -1 -40 -5 -85 -9 -191 -15 -250 -43 -404 -196 -118
-116 -203 -237 -214 -301 -11 -63 -61 -111 -177 -169 -125 -63 -175 -97 -227
-156 -70 -80 -101 -208 -79 -323 11 -56 14 -134 5 -148 -5 -7 -58 -11 -150
-10 -197 1 -302 -31 -295 -91 5 -40 56 -50 348 -67 436 -25 4870 -25 5210 0
253 18 300 35 278 95 -20 59 -76 70 -313 61 -127 -6 -142 -2 -148 39 -2 13 0
42 4 64 19 99 20 152 5 220 -34 146 -116 244 -248 298 -105 42 -152 87 -201
193 -88 188 -127 243 -224 325 -187 158 -483 207 -720 121 -128 -46 -199 -96
-333 -232 -110 -112 -168 -142 -300 -153 -108 -9 -237 -60 -321 -127 -38 -30
-114 -68 -136 -69 -7 0 -32 19 -56 43 -93 90 -262 150 -444 158 -80 4 -137 40
-197 124 -97 137 -232 231 -399 280 -48 14 -174 34 -179 30z m138 -200 c237
-89 322 -166 364 -332 14 -54 66 -132 110 -161 48 -32 79 -26 113 25 20 30 38
45 65 53 89 24 231 -1 281 -51 31 -31 90 -139 117 -216 10 -29 34 -74 54 -100
73 -98 143 -77 156 47 9 84 26 133 67 186 54 72 203 144 297 144 42 0 80 -24
80 -50 0 -11 11 -27 25 -36 56 -37 124 -24 168 31 29 36 87 146 87 164 0 5 18
36 40 69 46 70 113 130 190 171 192 101 355 100 517 -4 94 -61 237 -205 270
-274 30 -60 33 -108 21 -316 -5 -104 10 -188 41 -218 18 -18 23 -19 45 -8 14
8 31 32 40 57 8 24 22 64 31 87 20 57 69 107 104 107 42 -1 106 -35 136 -73
67 -89 73 -239 13 -308 -51 -58 -81 -65 -303 -74 -746 -29 -3404 -23 -3995 10
-188 11 -203 16 -232 83 -41 91 -18 260 42 321 50 49 135 54 178 8 18 -19 47
-107 36 -107 -11 0 29 -61 45 -70 32 -16 69 -12 84 11 16 22 16 118 -1 215
-20 117 7 259 68 352 70 108 152 170 309 233 159 63 219 68 337 24z"/>
<path d="M3484 1410 c-29 -11 -48 -69 -35 -103 6 -14 24 -33 40 -42 60 -31
131 26 115 91 -13 49 -69 75 -120 54z"/>
</g>
</svg>
